<svg xmlns="http://www.w3.org/2000/svg" viewBox="0 0 512 512" width="512" height="512">
  <!--
    OpenPact mark — light theme variant.
    Oxblood ink on paper. Same composition as the dark logo.
  -->
  <defs>
    <radialGradient id="ambient-light" cx="0.5" cy="0.5" r="0.55">
      <stop offset="0%" stop-color="#B91C1C" stop-opacity="0.12"/>
      <stop offset="60%" stop-color="#B91C1C" stop-opacity="0.03"/>
      <stop offset="100%" stop-color="#B91C1C" stop-opacity="0"/>
    </radialGradient>
    <radialGradient id="iris-light" cx="0.5" cy="0.5" r="0.58">
      <stop offset="0%" stop-color="#FEE2E2"/>
      <stop offset="50%" stop-color="#F87171"/>
      <stop offset="100%" stop-color="#7F1D1D"/>
    </radialGradient>
  </defs>

  <rect width="512" height="512" rx="96" fill="#F7F7F5"/>

  <circle cx="256" cy="256" r="230" fill="url(#ambient-light)"/>

  <g fill="none" stroke="#991B1B" stroke-linecap="round" stroke-linejoin="round">

    <path d="M 160 180 C 126 128, 108 76, 96 36" stroke-width="16"/>
    <path d="M 352 180 C 386 128, 404 76, 416 36" stroke-width="16"/>

    <path d="M 48 260 C 112 180, 176 148, 256 148 C 336 148, 400 180, 464 260
             C 400 340, 336 372, 256 372 C 176 372, 112 340, 48 260 Z"
          stroke-width="16"/>

    <circle cx="256" cy="260" r="72" stroke-width="14" fill="url(#iris-light)" fill-opacity="0.55"/>

    <circle cx="176" cy="432" r="20" fill="#991B1B" stroke="none"/>
    <circle cx="256" cy="460" r="20" fill="#991B1B" stroke="none"/>
    <circle cx="336" cy="432" r="20" fill="#991B1B" stroke="none"/>

    <path d="M 176 432 L 256 460 L 336 432 Z" stroke-width="6" stroke-opacity="0.45"/>
  </g>

  <ellipse cx="256" cy="260" rx="12" ry="56" fill="#1A1A1A"/>
  <circle cx="252" cy="224" r="4" fill="#FECACA" fill-opacity="0.9"/>
</svg>
