<svg xmlns="http://www.w3.org/2000/svg" viewBox="0 0 32 32" width="32" height="32">
  <rect width="32" height="32" rx="4" fill="#0e0a09"/>
  <g stroke="#ef4444" fill="none" stroke-linecap="round" stroke-linejoin="round">
    <path d="M6 9C5 6 5.5 4 7 3.5c0.6 1.6 0.4 3.4-0.5 5.2" stroke-width="1.2"/>
    <path d="M26 9c1-3 0.5-5-1-5.5-0.6 1.6-0.4 3.4 0.5 5.2" stroke-width="1.2"/>
    <path d="M3 16C7 11 11 9 16 9s9 2 13 7c-4 5-8 7-13 7S7 21 3 16z" stroke-width="1.25"/>
    <circle cx="16" cy="16" r="4.5" stroke-width="1.2"/>
  </g>
  <ellipse cx="16" cy="16" rx="1" ry="4" fill="#ef4444"/>
  <circle cx="11" cy="26" r="1.4" fill="#ef4444"/>
  <circle cx="16" cy="28" r="1.4" fill="#ef4444"/>
  <circle cx="21" cy="26" r="1.4" fill="#ef4444"/>
</svg>
