<svg fill="currentColor" role="img" viewBox="0 0 24 24" xmlns="http://www.w3.org/2000/svg"><title>OpenClaw</title><path d="M12 1.5a.75.75 0 0 0-.75.75v4.46a5.25 5.25 0 0 0-2.4-1.95L6.73 3.94a.75.75 0 1 0-.92 1.18l2.12 1.82A3.75 3.75 0 0 1 9.33 9.4L5.28 7.73a.75.75 0 1 0-.57 1.39l4.4 1.81a5.23 5.23 0 0 0 .1 2.5L5.1 10.93a.75.75 0 0 0-.78 1.28l4.53 2.77a7.26 7.26 0 0 0 12.3-5.2c.02-.2-.18-.36-.38-.3A8.86 8.86 0 0 1 12.75 9V2.25A.75.75 0 0 0 12 1.5Zm6.33 12.43a8.75 8.75 0 0 1-14.92-2.27.38.38 0 0 0-.7.08 10.25 10.25 0 0 0 19.24 3.2.75.75 0 1 0-1.31-.73 8.72 8.72 0 0 1-2.3 2.9.75.75 0 0 0 .94 1.16 10.27 10.27 0 0 0 2.08-2.34.38.38 0 0 0-.28-.6 9.13 9.13 0 0 1-2.75-1.4Z"/></svg>
